# Made in Blockbench 4.2.5
mtllib 3.mtl

o 3
v 0.5 0.0625 0.5
v 0.5 0.0625 0.4375
v 0.5 0 0.5
v 0.5 0 0.4375
v -0.4375 0.0625 0.5
v -0.4375 0.0625 0.4375
v -0.4375 0 0.5
v -0.4375 0 0.4375
v -0.4375 0.0625 0.5
v -0.4375 0.0625 -0.5
v -0.4375 0 0.5
v -0.4375 0 -0.5
v -0.5 0.0625 0.5
v -0.5 0.0625 -0.5
v -0.5 0 0.5
v -0.5 0 -0.5
vt 0.09375 0.78125
vt 0.09375 0.8125
vt 0.0625 0.8125
vt 0.0625 0.78125
vt 0.125 0.78125
vt 0.125 0.8125
vt 0.09375 0.8125
vt 0.09375 0.78125
vt 0.53125 0.90625
vt 0.53125 0.9375
vt 0.0625 0.9375
vt 0.0625 0.90625
vt 0.53125 0.875
vt 0.53125 0.90625
vt 0.0625 0.90625
vt 0.0625 0.875
vt 0.53125 0.84375
vt 0.53125 0.875
vt 0.0625 0.875
vt 0.0625 0.84375
vt 0.53125 0.8125
vt 0.53125 0.84375
vt 0.0625 0.84375
vt 0.0625 0.8125
vt 0.5 0.96875
vt 0.5 1
vt 0 1
vt 0 0.96875
vt 0.5 0.9375
vt 0.5 0.96875
vt 0 0.96875
vt 0 0.9375
vt 0.03125 0.4375
vt 0.03125 0.9375
vt 0 0.9375
vt 0 0.4375
vt 0.0625 0.4375
vt 0.0625 0.9375
vt 0.03125 0.9375
vt 0.03125 0.4375
vt 0.15625 0.78125
vt 0.15625 0.8125
vt 0.125 0.8125
vt 0.125 0.78125
vt 0.1875 0.78125
vt 0.1875 0.8125
vt 0.15625 0.8125
vt 0.15625 0.78125
vn 1 0 0
vn -1 0 0
vn 0 1 0
vn 0 -1 0
vn 0 0 1
vn 0 0 -1
vn 1 0 0
vn -1 0 0
vn 0 1 0
vn 0 -1 0
vn 0 0 1
vn 0 0 -1
usemtl m_0
f 4/1/1 2/2/1 1/3/1 3/4/1
f 7/5/2 5/6/2 6/7/2 8/8/2
f 1/9/3 2/10/3 6/11/3 5/12/3
f 4/13/4 3/14/4 7/15/4 8/16/4
f 3/17/5 1/18/5 5/19/5 7/20/5
f 8/21/6 6/22/6 2/23/6 4/24/6
f 12/25/7 10/26/7 9/27/7 11/28/7
f 15/29/8 13/30/8 14/31/8 16/32/8
f 9/33/9 10/34/9 14/35/9 13/36/9
f 12/37/10 11/38/10 15/39/10 16/40/10
f 11/41/11 9/42/11 13/43/11 15/44/11
f 16/45/12 14/46/12 10/47/12 12/48/12