# Made in Blockbench 4.2.5
mtllib Map.mtl

o Map
v 0.5 0.0625 0.5
v 0.5 0.0625 -0.5
v 0.5 0 0.5
v 0.5 0 -0.5
v -0.5 0.0625 0.5
v -0.5 0.0625 -0.5
v -0.5 0 0.5
v -0.5 0 -0.5
v 0.5625 0.25 -1.0625
v 0.5625 0.25 -1.625
v 0.5625 0.1875 -1.0625
v 0.5625 0.1875 -1.625
v 0 0.25 -1.0625
v 0 0.25 -1.625
v 0 0.1875 -1.0625
v 0 0.1875 -1.625
v 0.4375 0.5 2.3125
v 0.4375 0.5 1.875
v 0.4375 0.4375 2.3125
v 0.4375 0.4375 1.875
v 0 0.5 2.3125
v 0 0.5 1.875
v 0 0.4375 2.3125
v 0 0.4375 1.875
vt 0.640625 0.984375
vt 0.640625 1
vt 0.390625 1
vt 0.390625 0.984375
vt 0.640625 0.96875
vt 0.640625 0.984375
vt 0.390625 0.984375
vt 0.390625 0.96875
vt 0.25 0.75
vt 0.25 1
vt 0 1
vt 0 0.75
vt 0.25 0.5
vt 0.25 0.75
vt 0 0.75
vt 0 0.5
vt 0.640625 0.953125
vt 0.640625 0.96875
vt 0.390625 0.96875
vt 0.390625 0.953125
vt 0.640625 0.9375
vt 0.640625 0.953125
vt 0.390625 0.953125
vt 0.390625 0.9375
vt 0.53125 0.921875
vt 0.53125 0.9375
vt 0.390625 0.9375
vt 0.390625 0.921875
vt 0.53125 0.90625
vt 0.53125 0.921875
vt 0.390625 0.921875
vt 0.390625 0.90625
vt 0.390625 0.859375
vt 0.390625 1
vt 0.25 1
vt 0.25 0.859375
vt 0.390625 0.71875
vt 0.390625 0.859375
vt 0.25 0.859375
vt 0.25 0.71875
vt 0.53125 0.890625
vt 0.53125 0.90625
vt 0.390625 0.90625
vt 0.390625 0.890625
vt 0.53125 0.875
vt 0.53125 0.890625
vt 0.390625 0.890625
vt 0.390625 0.875
vt 0.5 0.859375
vt 0.5 0.875
vt 0.390625 0.875
vt 0.390625 0.859375
vt 0.5 0.84375
vt 0.5 0.859375
vt 0.390625 0.859375
vt 0.390625 0.84375
vt 0.359375 0.609375
vt 0.359375 0.71875
vt 0.25 0.71875
vt 0.25 0.609375
vt 0.46875 0.609375
vt 0.46875 0.71875
vt 0.359375 0.71875
vt 0.359375 0.609375
vt 0.5 0.828125
vt 0.5 0.84375
vt 0.390625 0.84375
vt 0.390625 0.828125
vt 0.5 0.8125
vt 0.5 0.828125
vt 0.390625 0.828125
vt 0.390625 0.8125
vn 1 0 0
vn -1 0 0
vn 0 1 0
vn 0 -1 0
vn 0 0 1
vn 0 0 -1
vn 1 0 0
vn -1 0 0
vn 0 1 0
vn 0 -1 0
vn 0 0 1
vn 0 0 -1
vn 1 0 0
vn -1 0 0
vn 0 1 0
vn 0 -1 0
vn 0 0 1
vn 0 0 -1
usemtl m_0
f 4/1/1 2/2/1 1/3/1 3/4/1
f 7/5/2 5/6/2 6/7/2 8/8/2
f 1/9/3 2/10/3 6/11/3 5/12/3
f 4/13/4 3/14/4 7/15/4 8/16/4
f 3/17/5 1/18/5 5/19/5 7/20/5
f 8/21/6 6/22/6 2/23/6 4/24/6
f 12/25/7 10/26/7 9/27/7 11/28/7
f 15/29/8 13/30/8 14/31/8 16/32/8
f 9/33/9 10/34/9 14/35/9 13/36/9
f 12/37/10 11/38/10 15/39/10 16/40/10
f 11/41/11 9/42/11 13/43/11 15/44/11
f 16/45/12 14/46/12 10/47/12 12/48/12
f 20/49/13 18/50/13 17/51/13 19/52/13
f 23/53/14 21/54/14 22/55/14 24/56/14
f 17/57/15 18/58/15 22/59/15 21/60/15
f 20/61/16 19/62/16 23/63/16 24/64/16
f 19/65/17 17/66/17 21/67/17 23/68/17
f 24/69/18 22/70/18 18/71/18 20/72/18