# Made in Blockbench 4.2.5
mtllib Pistol.mtl

o Pistol
v 0.06031598631691756 0.25053588923470493 0.37499999999999073
v 0.06086139478556586 0.18803826904319426 0.374999999999993
v -0.00218163387459315 0.24999048076605668 0.3749999999999908
v -0.0016362254059448418 0.18749286057454595 0.3749999999999931
v 0.06031598631691743 0.2505358892346842 -0.18750000000000924
v 0.06086139478556574 0.18803826904317347 -0.18750000000000694
v -0.002181633874593275 0.24999048076603586 -0.18750000000000921
v -0.0016362254059449667 0.18749286057452516 -0.1875000000000069
v 0.06086139478556578 0.18803826904318038 -6.942363350859182e-15
v 0.06140680325421409 0.1255406488516697 -4.638650574761982e-15
v -0.001636225405944925 0.1874928605745321 -6.9111383282915995e-15
v -0.0010908169372966167 0.1249952403830214 -4.6074255521944e-15
v 0.060861394785565764 0.18803826904317808 -0.06250000000000694
v 0.061406803254214076 0.12554064885166738 -0.06250000000000464
v -0.001636225405944939 0.1874928605745298 -0.06250000000000691
v -0.0010908169372966306 0.1249952403830191 -0.06250000000000461
v 0.06031598631691743 0.2505358892346842 -0.18750000000000924
v 0.062497620191510665 0.000545408468641366 -0.18750000000000003
v -0.002181633874593275 0.24999048076603586 -0.18750000000000921
v -4.163336342344337e-17 -6.931955010003321e-15 -0.1875
v 0.060315986316917404 0.25053588923467957 -0.31250000000000927
v 0.06249762019151064 0.0005454084686367447 -0.31250000000000006
v -0.002181633874593303 0.24999048076603125 -0.3125000000000092
v -6.938893903907228e-17 -1.1553258350005535e-14 -0.3125
v 0.06086139478556575 0.18803826904317578 -0.12500000000000694
v 0.06140680325421406 0.12554064885166508 -0.12500000000000464
v -0.0016362254059449528 0.18749286057452746 -0.1250000000000069
v -0.0010908169372966445 0.12499524038301678 -0.1250000000000046
v 0.06086139478556574 0.18803826904317347 -0.18750000000000694
v 0.06140680325421405 0.12554064885166277 -0.18750000000000464
v -0.0016362254059449667 0.18749286057452516 -0.1875000000000069
v -0.0010908169372966584 0.12499524038301446 -0.1875000000000046
v 0.061406803254214076 0.12554064885166738 -0.06250000000000464
v 0.06195221172286239 0.06304302866015668 -0.06250000000000233
v -0.0010908169372966306 0.1249952403830191 -0.06250000000000461
v -0.0005454084686483222 0.06249762019150839 -0.0625000000000023
v 0.06140680325421406 0.12554064885166508 -0.12500000000000464
v 0.061952211722862374 0.06304302866015438 -0.12500000000000233
v -0.0010908169372966445 0.12499524038301678 -0.1250000000000046
v -0.0005454084686483361 0.06249762019150608 -0.1250000000000023
vt 0.3125 0.5
vt 0.3125 0.5625
vt 0.25 0.5625
vt 0.25 0.5
vt 0.375 0.5
vt 0.375 0.5625
vt 0.3125 0.5625
vt 0.3125 0.5
vt 0.5625 0.9375
vt 0.5625 1
vt 0 1
vt 0 0.9375
vt 0.5625 0.875
vt 0.5625 0.9375
vt 0 0.9375
vt 0 0.875
vt 0.5625 0.8125
vt 0.5625 0.875
vt 0 0.875
vt 0 0.8125
vt 0.5625 0.75
vt 0.5625 0.8125
vt 0 0.8125
vt 0 0.75
vt 0.4375 0.5
vt 0.4375 0.5625
vt 0.375 0.5625
vt 0.375 0.5
vt 0.5 0.5
vt 0.5 0.5625
vt 0.4375 0.5625
vt 0.4375 0.5
vt 0.0625 0.4375
vt 0.0625 0.5
vt 0 0.5
vt 0 0.4375
vt 0.125 0.4375
vt 0.125 0.5
vt 0.0625 0.5
vt 0.0625 0.4375
vt 0.1875 0.4375
vt 0.1875 0.5
vt 0.125 0.5
vt 0.125 0.4375
vt 0.25 0.4375
vt 0.25 0.5
vt 0.1875 0.5
vt 0.1875 0.4375
vt 0.5 0.6875
vt 0.5 0.75
vt 0.25 0.75
vt 0.25 0.6875
vt 0.5 0.625
vt 0.5 0.6875
vt 0.25 0.6875
vt 0.25 0.625
vt 0.125 0.5
vt 0.125 0.75
vt 0 0.75
vt 0 0.5
vt 0.25 0.5
vt 0.25 0.75
vt 0.125 0.75
vt 0.125 0.5
vt 0.375 0.5625
vt 0.375 0.625
vt 0.25 0.625
vt 0.25 0.5625
vt 0.5 0.5625
vt 0.5 0.625
vt 0.375 0.625
vt 0.375 0.5625
vt 0.3125 0.4375
vt 0.3125 0.5
vt 0.25 0.5
vt 0.25 0.4375
vt 0.5625 0.6875
vt 0.5625 0.75
vt 0.5 0.75
vt 0.5 0.6875
vt 0.375 0.4375
vt 0.375 0.5
vt 0.3125 0.5
vt 0.3125 0.4375
vt 0.5625 0.625
vt 0.5625 0.6875
vt 0.5 0.6875
vt 0.5 0.625
vt 0.4375 0.4375
vt 0.4375 0.5
vt 0.375 0.5
vt 0.375 0.4375
vt 0.5625 0.5625
vt 0.5625 0.625
vt 0.5 0.625
vt 0.5 0.5625
vt 0.5 0.4375
vt 0.5 0.5
vt 0.4375 0.5
vt 0.4375 0.4375
vt 0.5625 0.5
vt 0.5625 0.5625
vt 0.5 0.5625
vt 0.5 0.5
vt 0.5625 0.4375
vt 0.5625 0.5
vt 0.5 0.5
vt 0.5 0.4375
vt 0.0625 0.375
vt 0.0625 0.4375
vt 0 0.4375
vt 0 0.375
vt 0.625 0.9375
vt 0.625 1
vt 0.5625 1
vt 0.5625 0.9375
vt 0.125 0.375
vt 0.125 0.4375
vt 0.0625 0.4375
vt 0.0625 0.375
vn 1.7792643673175816e-16 3.686236070466449e-14 1
vn -1.7792643673175816e-16 -3.686236070466449e-14 -1
vn 0.9999619230641714 0.008726535498372935 -5.446598913090883e-16
vn -0.9999619230641714 -0.008726535498372935 5.446598913090883e-16
vn -0.008726535498372767 0.9999619230641713 -3.696708131932484e-14
vn 0.008726535498372767 -0.9999619230641713 3.696708131932484e-14
vn 1.7792643673175816e-16 3.686236070466449e-14 1
vn -1.7792643673175816e-16 -3.686236070466449e-14 -1
vn 0.9999619230641714 0.008726535498372935 -5.446598913090883e-16
vn -0.9999619230641714 -0.008726535498372935 5.446598913090883e-16
vn -0.008726535498372767 0.9999619230641713 -3.696708131932484e-14
vn 0.008726535498372767 -0.9999619230641713 3.696708131932484e-14
vn 1.7792643673175816e-16 3.686236070466449e-14 1
vn -1.7792643673175816e-16 -3.686236070466449e-14 -1
vn 0.9999619230641714 0.008726535498372935 -5.446598913090883e-16
vn -0.9999619230641714 -0.008726535498372935 5.446598913090883e-16
vn -0.008726535498372767 0.9999619230641713 -3.696708131932484e-14
vn 0.008726535498372767 -0.9999619230641713 3.696708131932484e-14
vn 1.7792643673175816e-16 3.686236070466449e-14 1
vn -1.7792643673175816e-16 -3.686236070466449e-14 -1
vn 0.9999619230641714 0.008726535498372935 -5.446598913090883e-16
vn -0.9999619230641714 -0.008726535498372935 5.446598913090883e-16
vn -0.008726535498372767 0.9999619230641713 -3.696708131932484e-14
vn 0.008726535498372767 -0.9999619230641713 3.696708131932484e-14
vn 1.7792643673175816e-16 3.686236070466449e-14 1
vn -1.7792643673175816e-16 -3.686236070466449e-14 -1
vn 0.9999619230641714 0.008726535498372935 -5.446598913090883e-16
vn -0.9999619230641714 -0.008726535498372935 5.446598913090883e-16
vn -0.008726535498372767 0.9999619230641713 -3.696708131932484e-14
vn 0.008726535498372767 -0.9999619230641713 3.696708131932484e-14
usemtl m_0
f 4/1/1 2/2/1 1/3/1 3/4/1
f 7/5/2 5/6/2 6/7/2 8/8/2
f 1/9/3 2/10/3 6/11/3 5/12/3
f 4/13/4 3/14/4 7/15/4 8/16/4
f 3/17/5 1/18/5 5/19/5 7/20/5
f 8/21/6 6/22/6 2/23/6 4/24/6
f 12/25/7 10/26/7 9/27/7 11/28/7
f 15/29/8 13/30/8 14/31/8 16/32/8
f 9/33/9 10/34/9 14/35/9 13/36/9
f 12/37/10 11/38/10 15/39/10 16/40/10
f 11/41/11 9/42/11 13/43/11 15/44/11
f 16/45/12 14/46/12 10/47/12 12/48/12
f 20/49/13 18/50/13 17/51/13 19/52/13
f 23/53/14 21/54/14 22/55/14 24/56/14
f 17/57/15 18/58/15 22/59/15 21/60/15
f 20/61/16 19/62/16 23/63/16 24/64/16
f 19/65/17 17/66/17 21/67/17 23/68/17
f 24/69/18 22/70/18 18/71/18 20/72/18
f 28/73/19 26/74/19 25/75/19 27/76/19
f 31/77/20 29/78/20 30/79/20 32/80/20
f 25/81/21 26/82/21 30/83/21 29/84/21
f 28/85/22 27/86/22 31/87/22 32/88/22
f 27/89/23 25/90/23 29/91/23 31/92/23
f 32/93/24 30/94/24 26/95/24 28/96/24
f 36/97/25 34/98/25 33/99/25 35/100/25
f 39/101/26 37/102/26 38/103/26 40/104/26
f 33/105/27 34/106/27 38/107/27 37/108/27
f 36/109/28 35/110/28 39/111/28 40/112/28
f 35/113/29 33/114/29 37/115/29 39/116/29
f 40/117/30 38/118/30 34/119/30 36/120/30